<svg width="25" height="24" viewBox="0 0 25 24" fill="none" xmlns="http://www.w3.org/2000/svg">
<path d="M18.8988 0H5.67261C2.69751 0 0.285706 2.4118 0.285706 5.38691V18.6131C0.285706 21.5882 2.69751 24 5.67261 24H18.8988C21.8739 24 24.2857 21.5882 24.2857 18.6131V5.38691C24.2857 2.4118 21.8739 0 18.8988 0Z" fill="#3283BB"/>
<path fill-rule="evenodd" clip-rule="evenodd" d="M10.0453 15.0551C9.47836 15.0411 8.92977 14.8511 8.4755 14.5115C8.02124 14.172 7.68378 13.6996 7.50984 13.1597C7.89588 13.2452 8.29596 13.2452 8.682 13.1597C8.31689 13.0739 7.97341 12.9137 7.67303 12.6892C7.37265 12.4646 7.12182 12.1805 6.93624 11.8546C6.66475 11.4187 6.5261 10.9132 6.53721 10.3998C6.90985 10.6049 7.32577 10.7188 7.75093 10.7323C7.18036 10.3396 6.77945 9.74568 6.62865 9.06967C6.47621 8.39774 6.58624 7.69295 6.93624 7.09946C7.62102 7.94378 8.47461 8.63576 9.44233 9.13107C10.41 9.62639 11.4706 9.9141 12.5559 9.9758C12.5559 9.86773 12.5559 9.77629 12.5143 9.67653C12.4396 9.11071 12.5442 8.53569 12.8136 8.03251C13.083 7.52932 13.5034 7.12334 14.0157 6.87178C14.528 6.62022 15.1064 6.53575 15.6692 6.63029C16.2321 6.72483 16.7511 6.9936 17.1531 7.39873C17.1705 7.41798 17.193 7.43205 17.2179 7.43938C17.2428 7.44672 17.2693 7.44703 17.2944 7.4403C17.852 7.32172 18.3877 7.11698 18.8822 6.83344C18.6836 7.44273 18.2814 7.96518 17.7433 8.31317C18.268 8.25485 18.7809 8.11752 19.2646 7.90583L18.9903 8.31317C18.7019 8.66721 18.3695 8.9829 18.001 9.25256C17.9873 9.26144 17.9762 9.27383 17.9689 9.28845C17.9616 9.30307 17.9583 9.31938 17.9594 9.33569C17.9754 9.74094 17.9587 10.1468 17.9096 10.5494C17.8037 11.3908 17.5652 12.2101 17.203 12.9768C16.836 13.7716 16.3387 14.4993 15.7315 15.1299C14.7194 16.1858 13.4131 16.9128 11.9823 17.2165C11.4821 17.3252 10.9727 17.3864 10.461 17.3994C8.92457 17.452 7.40753 17.0437 6.10493 16.2273L6.03842 16.1857C6.96026 16.2851 7.89229 16.1508 8.7485 15.795C9.2128 15.6093 9.64921 15.3603 10.0453 15.0551Z" fill="white"/>
</svg>
