<svg width="65" height="82" viewBox="0 0 40 51" fill="none" xmlns="http://www.w3.org/2000/svg">
<path d="M27.5036 1.35108H33.3967C33.3967 1.35108 33.6547 18.2838 22.8936 18.3924C23.0633 18.0597 23.3417 17.5098 23.3417 17.5098C23.3417 17.5098 31.7945 17.0888 32.4259 2.35591H27.4425L27.5036 1.35108Z" fill="#E4B849"/>
<path d="M11.8813 1.35108H5.9813C5.9813 1.35108 5.68882 18.2888 16.45 18.3974C16.2599 18.0783 15.8874 17.5621 15.8874 17.5621C15.8874 17.5621 7.5768 17.082 6.95218 2.34912H11.9424L11.8813 1.34429V1.35108Z" fill="#E4B849"/>
<path d="M15.6901 17.3061C15.6901 17.3061 22.1196 16.1655 25.2427 13.8435C24.6113 15.0452 21.9567 20.0965 21.9295 20.5107C21.9024 20.9656 22.7239 28.3592 24.3262 35.7053C23.1584 35.875 20.6871 36.7848 14.9161 35.7324C15.3099 33.9808 16.4233 27.4358 17.4621 20.531C17.3331 20.0082 16.7832 18.7318 15.6969 17.3061H15.6901Z" fill="#DFDEDE"/>
<path d="M11.7998 0C11.7998 0 20.2593 2.41022 27.5918 0L27.3814 3.32C27.3814 3.32 23.6676 4.75934 17.4621 4.07362C17.9577 4.48098 21.9635 7.73308 26.5327 8.98233L25.8198 11.895C25.8198 11.895 21.1487 14.8551 15.1537 15.8532L13.8434 12.7912C13.8434 12.7912 18.6027 12.7029 22.2622 10.6118C21.3864 10.2044 15.079 7.47509 11.9967 3.191C11.8337 0.583884 11.793 0 11.793 0H11.7998Z" fill="white"/>
<path d="M15.337 33.5802C15.337 33.5802 19.465 34.7887 23.8849 33.5802C24.3126 35.7053 24.3262 35.7053 24.3262 35.7053C24.3262 35.7053 20.3136 37.0088 14.9161 35.7324C15.3167 33.7703 15.337 33.5734 15.337 33.5734V33.5802Z" fill="white"/>
<path d="M2.6397 50.5875C1.77067 50.5875 1.11346 50.3431 0.668073 49.8543C0.222691 49.3546 0 48.6431 0 47.7197V47.0679H1.69463V47.8501C1.69463 48.5887 2.00422 48.9581 2.62341 48.9581C2.92757 48.9581 3.1557 48.8712 3.30778 48.6974C3.47072 48.5127 3.5522 48.2194 3.5522 47.8175C3.5522 47.3395 3.44357 46.9213 3.22631 46.5628C3.00905 46.1935 2.60712 45.7535 2.02051 45.243C1.28183 44.5912 0.76584 44.0046 0.47254 43.4831C0.179239 42.9509 0.0325889 42.3534 0.0325889 41.6908C0.0325889 40.7891 0.260712 40.0939 0.716957 39.6051C1.1732 39.1054 1.83584 38.8555 2.70488 38.8555C3.56306 38.8555 4.20941 39.1054 4.64392 39.6051C5.08931 40.0939 5.312 40.8 5.312 41.7233V42.1959H3.61737V41.6093C3.61737 41.2182 3.54133 40.9358 3.38925 40.762C3.23717 40.5773 3.01448 40.485 2.72118 40.485C2.12371 40.485 1.82498 40.8489 1.82498 41.5767C1.82498 41.9895 1.93361 42.3751 2.15087 42.7336C2.37899 43.0921 2.78636 43.5266 3.37296 44.0372C4.1225 44.6889 4.63849 45.281 4.92093 45.8133C5.20337 46.3455 5.34459 46.9702 5.34459 47.6871C5.34459 48.6213 5.11103 49.3383 4.64392 49.838C4.18768 50.3377 3.51961 50.5875 2.6397 50.5875Z" fill="#E4B849"/>
<path d="M7.77361 40.6479H5.89974V39.0185H11.4399V40.6479H9.566V50.4246H7.77361V40.6479Z" fill="#E4B849"/>
<path d="M12.9448 39.0185H15.3727L17.2303 50.4246H15.4379L15.112 48.1597V48.1922H13.0752L12.7493 50.4246H11.0872L12.9448 39.0185ZM14.9001 46.6443L14.1017 41.0064H14.0691L13.287 46.6443H14.9001Z" fill="#E4B849"/>
<path d="M18.0998 39.0185H20.8373C21.7281 39.0185 22.3962 39.2575 22.8415 39.7354C23.2869 40.2134 23.5096 40.9141 23.5096 41.8374V47.6056C23.5096 48.529 23.2869 49.2297 22.8415 49.7076C22.3962 50.1856 21.7281 50.4246 20.8373 50.4246H18.0998V39.0185ZM20.8047 48.7951C21.098 48.7951 21.3207 48.7082 21.4728 48.5344C21.6357 48.3606 21.7172 48.0782 21.7172 47.6871V41.7559C21.7172 41.3649 21.6357 41.0824 21.4728 40.9086C21.3207 40.7348 21.098 40.6479 20.8047 40.6479H19.8922V48.7951H20.8047Z" fill="#E4B849"/>
<path d="M24.7195 39.0185H26.5119V50.4246H24.7195V39.0185Z" fill="#E4B849"/>
<path d="M30.4451 50.5875C29.5652 50.5875 28.8917 50.3377 28.4246 49.838C27.9575 49.3383 27.7239 48.6322 27.7239 47.7197V41.7233C27.7239 40.8109 27.9575 40.1048 28.4246 39.6051C28.8917 39.1054 29.5652 38.8555 30.4451 38.8555C31.325 38.8555 31.9985 39.1054 32.4656 39.6051C32.9327 40.1048 33.1663 40.8109 33.1663 41.7233V47.7197C33.1663 48.6322 32.9327 49.3383 32.4656 49.838C31.9985 50.3377 31.325 50.5875 30.4451 50.5875ZM30.4451 48.9581C31.0643 48.9581 31.3739 48.5833 31.3739 47.8338V41.6093C31.3739 40.8597 31.0643 40.485 30.4451 40.485C29.8259 40.485 29.5163 40.8597 29.5163 41.6093V47.8338C29.5163 48.5833 29.8259 48.9581 30.4451 48.9581Z" fill="#E4B849"/>
<path d="M34.3784 39.0185H36.627L38.3706 45.8459H38.4031V39.0185H40V50.4246H38.1587L36.0079 42.0981H35.9753V50.4246H34.3784V39.0185Z" fill="#E4B849"/>
</svg>
