<svg width="32" height="32" viewBox="0 0 32 32" fill="none" xmlns="http://www.w3.org/2000/svg">
<path d="M4 7.99996C4 7.64634 4.14048 7.3072 4.39052 7.05715C4.64057 6.8071 4.97971 6.66663 5.33333 6.66663H26.6667C27.0203 6.66663 27.3594 6.8071 27.6095 7.05715C27.8595 7.3072 28 7.64634 28 7.99996C28 8.35358 27.8595 8.69272 27.6095 8.94277C27.3594 9.19282 27.0203 9.33329 26.6667 9.33329H5.33333C4.97971 9.33329 4.64057 9.19282 4.39052 8.94277C4.14048 8.69272 4 8.35358 4 7.99996ZM4 16C4 15.6463 4.14048 15.3072 4.39052 15.0571C4.64057 14.8071 4.97971 14.6666 5.33333 14.6666H26.6667C27.0203 14.6666 27.3594 14.8071 27.6095 15.0571C27.8595 15.3072 28 15.6463 28 16C28 16.3536 27.8595 16.6927 27.6095 16.9428C27.3594 17.1928 27.0203 17.3333 26.6667 17.3333H5.33333C4.97971 17.3333 4.64057 17.1928 4.39052 16.9428C4.14048 16.6927 4 16.3536 4 16ZM5.33333 22.6666C4.97971 22.6666 4.64057 22.8071 4.39052 23.0571C4.14048 23.3072 4 23.6463 4 24C4 24.3536 4.14048 24.6927 4.39052 24.9428C4.64057 25.1928 4.97971 25.3333 5.33333 25.3333H26.6667C27.0203 25.3333 27.3594 25.1928 27.6095 24.9428C27.8595 24.6927 28 24.3536 28 24C28 23.6463 27.8595 23.3072 27.6095 23.0571C27.3594 22.8071 27.0203 22.6666 26.6667 22.6666H5.33333Z" fill="#3283BB"/>
</svg>
