<svg width="25" height="16" viewBox="0 0 25 16" fill="none" xmlns="http://www.w3.org/2000/svg">
<path d="M24.2802 5.95168C24.3341 4.52034 23.9929 3.0997 23.2881 1.82168C22.8099 1.29728 22.1463 0.943393 21.4129 0.821683C18.3794 0.569208 15.3333 0.465727 12.2878 0.511683C9.25331 0.463642 6.2182 0.563783 3.19534 0.811683C2.5977 0.9114 2.04463 1.16853 1.60361 1.55168C0.622414 2.38168 0.513392 3.80168 0.404369 5.00168C0.246192 7.15925 0.246192 9.32412 0.404369 11.4817C0.43591 12.1571 0.545546 12.8275 0.731436 13.4817C0.862889 13.9867 1.12885 14.454 1.50549 14.8417C1.9495 15.2451 2.51546 15.5169 3.12992 15.6217C5.48035 15.8878 7.84864 15.9981 10.2164 15.9517C14.0321 16.0017 17.3791 15.9517 21.3366 15.6717C21.9662 15.5733 22.5481 15.3012 23.0047 14.8917C23.3099 14.6116 23.5379 14.2688 23.6697 13.8917C24.0596 12.7943 24.2511 11.6458 24.2366 10.4917C24.2802 9.93168 24.2802 6.55168 24.2802 5.95168ZM9.82388 11.0917V4.90168L16.278 8.01168C14.4682 8.93168 12.0806 9.97168 9.82388 11.0917Z" fill="#3283BB"/>
</svg>
